<svg width="18" height="19" viewBox="0 0 18 19" fill="none" xmlns="http://www.w3.org/2000/svg">
<path d="M9.79489 8.38518C10.196 8.7851 10.5143 9.26027 10.7315 9.78343C10.9487 10.3066 11.0605 10.8675 11.0605 11.4339C11.0605 12.0004 10.9487 12.5613 10.7315 13.0844C10.5143 13.6076 10.196 14.0827 9.79489 14.4827C8.10739 16.1627 5.37738 16.1702 3.69738 14.4827C2.01738 12.7952 2.00988 10.0652 3.69738 8.38518" stroke="#67676A" stroke-opacity="0.9" stroke-width="1.5" stroke-linecap="round" stroke-linejoin="round"/>
<path d="M7.94271 10.2377C6.18771 8.48268 6.18771 5.63268 7.94271 3.87018C9.69771 2.10768 12.5477 2.11518 14.3102 3.87018C16.0727 5.62518 16.0652 8.47518 14.3102 10.2377" stroke="#67676A" stroke-opacity="0.9" stroke-width="1.5" stroke-linecap="round" stroke-linejoin="round"/>
</svg>
